<svg xmlns="http://www.w3.org/2000/svg" width="135" height="18" fill="none"><path fill="#DEDEE2" d="M14.251 17.788h-2.257l-7.58-9.596v9.475l-.116.12H.768l-.116-.12V.407l.116-.12h2.257q.333.286 3.761 4.767l3.82 4.828V.407l.115-.12h3.53l.116.12v17.26zm16.379 0H18.187l-.116-.121V.407l.116-.12h12.21l.115.12v3.62l-.115.121h-8.622v2.897h8.217l.115.121v3.621l-.115.12h-8.217v3.018h8.853l.116.12v3.622l-.116.12Zm17.143 0h-4.456q-.492-.513-3.877-5.673h-.058l-3.935 5.673H31.05l-.116-.121 6.134-8.811-5.67-8.45v-.12h4.34q.997 1.283 3.587 5.25.218-.166 2.72-3.922l.984-1.328h4.34v.06l-5.671 8.45 6.076 8.87zm6.973.212q-3.675 0-5.844-3.5-.81-1.78-.81-3.199V.378l.115-.12h3.472l.116.12v9.897q0 3.138 2.083 3.742l.695.12h.405q2.068 0 2.778-2.414l.057-.663V.378l.116-.12h3.53l.116.12v10.5q0 5.025-4.745 6.82-1.157.302-2.084.302m15.496-.016q-4.05 0-6.481-3.078-.536-.785-1.1-2.172 3.182-1.69 3.356-1.69 1.129 3.078 4.109 3.078h.347q2.894-.211 2.894-1.388l.057-.362q0-1.298-4.918-1.992-4.977-1.177-4.977-4.767V5.19q0-3.59 4.34-4.949Q69.114.001 69.894 0h.868q4.283 0 6.482 4.224v.182l-3.183 1.87q-1.158-2.232-2.257-2.233 0-.12-1.62-.241-1.996 0-2.778 1.086a5 5 0 0 0-.115.543q0 .951 3.645 1.449 3.5.814 4.34 1.569 1.91 1.554 1.91 3.983 0 3.788-4.051 5.13-1.548.422-2.893.422m16.537.001h-.116q-4.99 0-7.523-4.405-.983-2.067-.983-4.104v-.905q0-4.557 3.877-7.242Q84.146.062 86.2.062h1.042q3.601 0 6.48 3.56-.014.165-2.372 2.716-2.025-2.474-4.687-2.474-3.327 0-4.514 3.198-.288.875-.289 1.992 0 4.104 3.82 5.009l1.157.06q1.764 0 2.893-1.026V11.71h-4.803l-.116-.12V8.027l.116-.12h8.39l.116.12v6.759q-2.835 3.198-6.654 3.198Zm24.117-.197h-3.935q-.362-.544-1.62-3.621h-6.655q-.102.045-1.563 3.56l-.058.06h-3.934l-.058-.06h-.058l7.523-17.44h2.835q.202.12 1.852 4.163l5.729 13.277zm-5.555-3.621-3.299-8.208h-.116l-3.24 8.208zm9.94 3.621h-3.53l-.115-.121V4.088h-4.977l-.116-.12V.406l.116-.12h13.773l.115.12v3.56l-.115.121h-5.035v13.579l-.116.12Zm19.256 0h-12.441l-.116-.121V.407l.116-.12h12.209l.117.12v3.62l-.117.121h-8.621v2.897h8.216l.117.121v3.621l-.117.12h-8.216v3.018h8.853l.115.12v3.622z"/></svg>